<?xml version="1.0" encoding="utf-8"?>
<!-- Generator: Adobe Illustrator 16.0.0, SVG Export Plug-In . SVG Version: 6.00 Build 0)  -->
<!DOCTYPE svg PUBLIC "-//W3C//DTD SVG 1.1//EN" "http://www.w3.org/Graphics/SVG/1.1/DTD/svg11.dtd">
<svg version="1.1" id="Calque_1" xmlns="http://www.w3.org/2000/svg" xmlns:xlink="http://www.w3.org/1999/xlink" x="0px" y="0px"
	 width="123px" height="122.84px" viewBox="0 0 123 122.84" enable-background="new 0 0 123 122.84" xml:space="preserve">
<g>
	<path fill="#9BB23B" d="M55.78,0.377c15.648-2.023,33.142,4.28,45.273,14.259c25.529,21.003,29.764,61.046,7.531,86.538
		c-10.77,12.58-26.121,20.33-42.641,21.52c-16.745,1.145-33.248-4.49-45.796-15.638C8.127,96.192,0.913,81,0.088,64.818
		c-0.899-18.053,5.135-32.441,17.02-45.681c1.569,1.496,5.768,5.03,6.132,7.031c0.09,0.501-0.563,1.129-0.942,1.636
		c-4.402,4.589-8.675,13.099-10.526,19.172c-4.071,12.989-2.705,27.075,3.786,39.041c6.637,12.129,17.784,21.154,31.028,25.124
		c13.866,4.15,27.391,2.674,40.135-4.253c12.018-6.505,20.926-17.556,24.732-30.681c3.844-13.604,2.123-28.179-4.783-40.514
		c-6.881-11.987-18.238-20.752-31.576-24.372c-16.697-4.551-29.399-0.508-43.675,7.658c-1.8-2.003-4.209-5.349-5.861-7.523
		C35.348,4.817,44.281,1.945,55.78,0.377L55.78,0.377z"/>
	<path fill="#4E6478" d="M41.862,37.133c5.028-0.672,10.284,1.425,14.727,3.462c-3.458,2.633-5.268,4.558-7.959,7.97
		c-10.213-2.51-18.511,1.398-19.267,13.162c-0.225,3.481,1.5,7.485,3.997,9.971c2.786,2.748,6.577,4.234,10.489,4.109
		c11.023-0.247,21.259-13.591,28.734-21.384c0.652,1.79,1.457,3.73,2.158,5.511l0.025,0.146c0.074,0.393,0.143,0.787,0.207,1.183
		c1.02,6.508-4.24,9.475-7.906,13.57c-9.526,10.639-26.61,16.21-39.084,6.388c-5.064-3.993-8.331-9.84-9.079-16.245
		C17.181,49.911,27.071,38.795,41.862,37.133L41.862,37.133z"/>
	<path fill="#9BB23B" d="M49.501,68.969c-2.312-4.428-2.868-9.023,0.093-13.411c5.042-7.253,13.572-15.272,22.418-17.332
		c15.748-3.666,28.361,3.523,32.184,19.147c-4.266-0.872-6.986-1.299-10.553,1.634c-1.416-5.929-5.168-10.251-11.479-11.187
		c-11.682-1.728-18.361,8.407-25.794,15.373c-2.088,1.955-4.123,3.775-6.462,5.482L49.501,68.969L49.501,68.969z"/>
	<path fill="#4E6478" d="M93.643,59.007c3.566-2.934,6.287-2.506,10.553-1.634c1.121,6.464-0.402,13.106-4.227,18.437
		c-7.578,10.652-22.373,13.601-33.361,6.548c3.438-2.748,5.256-4.382,8.309-7.523c8.715,2.057,16.031-0.613,18.627-10.307
		C94.01,62.789,93.777,60.813,93.643,59.007L93.643,59.007z"/>
</g>
</svg>
