<svg xmlns="http://www.w3.org/2000/svg" viewBox="0 0 124 124" width="124" height="124">
  <path fill="#9BB23B" d="M56.164,0.38c15.758-2.037,33.372,4.31,45.586,14.358c25.706,21.147,29.971,61.468,7.584,87.136
    c-10.843,12.668-26.304,20.471-42.935,21.668c-16.862,1.152-33.479-4.521-46.114-15.746C8.182,96.857,0.918,81.56,0.088,65.267
    c-0.906-18.178,5.17-32.665,17.137-45.996c1.579,1.506,5.807,5.064,6.174,7.078c0.091,0.506-0.567,1.138-0.949,1.648
    c-4.432,4.621-8.734,13.189-10.599,19.305c-4.098,13.08-2.722,27.262,3.813,39.31c6.683,12.213,17.907,21.302,31.243,25.298
    c13.961,4.18,27.582,2.692,40.413-4.281c12.101-6.551,21.07-17.678,24.903-30.894c3.87-13.698,2.138-28.374-4.817-40.794
    c-6.928-12.07-18.364-20.895-31.794-24.54c-16.813-4.583-29.603-0.512-43.977,7.711c-1.813-2.017-4.238-5.386-5.902-7.575
    C35.591,4.852,44.586,1.959,56.164,0.38z"/>
  <path fill="#4E6478" d="M42.15,37.391c5.063-0.677,10.355,1.435,14.828,3.487c-3.481,2.65-5.305,4.588-8.014,8.024
    c-10.284-2.526-18.64,1.408-19.4,13.253c-0.226,3.506,1.51,7.536,4.024,10.04c2.806,2.767,6.623,4.263,10.562,4.138
    c11.099-0.248,21.406-13.686,28.934-21.531c0.657,1.802,1.467,3.756,2.173,5.55l0.025,0.147c0.075,0.396,0.144,0.793,0.208,1.19
    c1.028,6.554-4.269,9.54-7.961,13.663c-9.592,10.712-26.794,16.322-39.354,6.432c-5.1-4.021-8.389-9.906-9.142-16.357
    C17.299,50.257,27.257,39.064,42.15,37.391z"/>
  <path fill="#9BB23B" d="M49.842,69.445c-2.328-4.458-2.888-9.084,0.093-13.503c5.076-7.305,13.667-15.378,22.574-17.451
    c15.857-3.691,28.557,3.549,32.406,19.279c-4.296-0.878-7.035-1.309-10.627,1.646c-1.425-5.971-5.203-10.324-11.557-11.265
    c-11.761-1.739-18.488,8.466-25.974,15.479c-2.101,1.967-4.151,3.799-6.506,5.519L49.842,69.445z"/>
  <path fill="#4E6478" d="M94.288,59.417c3.592-2.955,6.331-2.524,10.627-1.646c1.127,6.508-0.406,13.197-4.256,18.564
    c-7.63,10.725-22.528,13.693-33.592,6.592c3.462-2.768,5.293-4.412,8.366-7.575c8.776,2.071,16.142-0.618,18.756-10.378
    C94.658,63.222,94.425,61.233,94.288,59.417z"/>
</svg>
