<?xml version="1.0" encoding="utf-8"?>
<!-- Generator: Adobe Illustrator 16.0.0, SVG Export Plug-In . SVG Version: 6.00 Build 0)  -->
<!DOCTYPE svg PUBLIC "-//W3C//DTD SVG 1.1//EN" "http://www.w3.org/Graphics/SVG/1.1/DTD/svg11.dtd">
<svg version="1.1" id="Calque_1" xmlns="http://www.w3.org/2000/svg" xmlns:xlink="http://www.w3.org/1999/xlink" x="0px" y="0px"
	 width="349.667px" height="123.688px" viewBox="0 0 349.667 123.688" enable-background="new 0 0 349.667 123.688"
	 xml:space="preserve">
<g>
	<path fill="#4E6478" d="M155.08,85.909c-5.759,0-10.278-1.645-13.556-4.931c-3.277-3.287-4.916-8.095-4.916-14.425V41.751h6.198
		v24.582c0,4.838,1.072,8.385,3.216,10.639s5.181,3.382,9.11,3.382c3.93,0,6.966-1.128,9.11-3.382s3.216-5.801,3.216-10.639V41.751
		h6.092v24.803c0,6.33-1.639,11.138-4.916,14.425C165.357,84.265,160.838,85.909,155.08,85.909L155.08,85.909z"/>
	<path fill="#4E6478" d="M203.078,52.028c2.696,0,5.07,0.518,7.123,1.555s3.672,2.613,4.855,4.732
		c1.183,2.119,1.773,4.809,1.773,8.07v19.021h-5.986V67.07c0-3.219-0.783-5.64-2.346-7.263c-1.563-1.621-3.77-2.434-6.621-2.434
		c-2.091,0-3.926,0.424-5.507,1.268c-1.581,0.845-2.798,2.076-3.651,3.697c-0.852,1.619-1.278,3.625-1.278,6.017v17.051h-5.987
		V52.374h5.724v8.904l-0.968-2.348c1.097-2.194,2.765-3.893,5.006-5.096C197.457,52.63,200.077,52.028,203.078,52.028
		L203.078,52.028z"/>
	<path fill="#4E6478" d="M227.924,85.406V52.374h5.987v33.032H227.924L227.924,85.406z M230.895,45.984
		c-1.152,0-2.114-0.377-2.887-1.131c-0.771-0.755-1.156-1.673-1.156-2.755c0-1.09,0.386-2.01,1.156-2.762
		c0.772-0.75,1.734-1.125,2.887-1.125c1.161,0,2.125,0.357,2.892,1.074c0.77,0.715,1.153,1.617,1.153,2.707
		c0,1.117-0.375,2.061-1.126,2.834C233.063,45.599,232.091,45.984,230.895,45.984L230.895,45.984z"/>
	<polygon fill="#4E6478" points="245.324,85.406 245.324,39.132 251.312,39.132 251.312,85.406 245.324,85.406 	"/>
	<path fill="#4E6478" d="M262.725,85.406V52.374h5.987v33.032H262.725L262.725,85.406z M265.695,45.984
		c-1.152,0-2.116-0.377-2.888-1.131c-0.771-0.755-1.156-1.673-1.156-2.755c0-1.09,0.385-2.01,1.156-2.762
		c0.771-0.75,1.735-1.125,2.888-1.125c1.159,0,2.123,0.357,2.892,1.074c0.768,0.715,1.152,1.617,1.152,2.707
		c0,1.117-0.376,2.061-1.127,2.834C267.862,45.599,266.89,45.984,265.695,45.984L265.695,45.984z"/>
	<path fill="#4E6478" d="M294.833,85.751c-3.54,0-6.647-0.723-9.322-2.168s-4.752-3.439-6.234-5.983
		c-1.479-2.544-2.22-5.449-2.22-8.714c0-3.271,0.714-6.176,2.143-8.713c1.431-2.539,3.401-4.53,5.912-5.977
		c2.512-1.445,5.357-2.168,8.536-2.168c3.178,0,5.996,0.711,8.455,2.133s4.388,3.408,5.785,5.961
		c1.397,2.551,2.096,5.526,2.096,8.926c0,0.252-0.009,0.547-0.026,0.889c-0.018,0.339-0.044,0.656-0.078,0.951h-28.134v-4.346
		h24.973l-2.396,1.515c0.035-2.125-0.41-4.011-1.335-5.66c-0.925-1.647-2.188-2.94-3.79-3.878c-1.601-0.938-3.451-1.407-5.55-1.407
		c-2.093,0-3.95,0.47-5.573,1.407c-1.622,0.938-2.886,2.238-3.79,3.904c-0.902,1.666-1.354,3.597-1.354,5.791v0.988
		c0,2.215,0.503,4.174,1.511,5.883c1.008,1.707,2.424,3.037,4.248,3.994c1.824,0.955,3.924,1.432,6.301,1.432
		c1.952,0,3.736-0.327,5.354-0.983c1.618-0.655,3.018-1.657,4.202-3.005l3.295,3.875c-1.483,1.747-3.335,3.075-5.556,3.986
		C300.065,85.296,297.581,85.751,294.833,85.751L294.833,85.751z"/>
	<path fill="#4E6478" d="M335.914,52.028c2.696,0,5.071,0.518,7.123,1.555c2.055,1.037,3.673,2.613,4.855,4.732
		s1.774,4.809,1.774,8.07v19.021h-5.986V67.07c0-3.219-0.782-5.64-2.346-7.263c-1.563-1.621-3.771-2.434-6.621-2.434
		c-2.091,0-3.927,0.424-5.508,1.268c-1.579,0.845-2.797,2.076-3.649,3.697c-0.854,1.619-1.279,3.625-1.279,6.017v17.051h-5.987
		V52.374h5.725v8.904l-0.967-2.348c1.096-2.194,2.765-3.893,5.005-5.096C330.294,52.63,332.914,52.028,335.914,52.028
		L335.914,52.028z"/>
	<path fill="#9BB23B" d="M56.164,0.38c15.758-2.037,33.372,4.31,45.586,14.358c25.706,21.147,29.971,61.468,7.584,87.136
		c-10.843,12.668-26.304,20.471-42.935,21.668c-16.862,1.152-33.479-4.521-46.114-15.746C8.182,96.857,0.918,81.56,0.088,65.267
		c-0.906-18.178,5.17-32.665,17.137-45.996c1.579,1.506,5.807,5.064,6.174,7.078c0.091,0.506-0.567,1.138-0.949,1.648
		c-4.432,4.621-8.734,13.189-10.599,19.305c-4.098,13.08-2.722,27.262,3.813,39.31c6.683,12.213,17.907,21.302,31.243,25.298
		c13.961,4.18,27.582,2.692,40.413-4.281c12.101-6.551,21.07-17.678,24.903-30.894c3.87-13.698,2.138-28.374-4.817-40.794
		c-6.928-12.07-18.364-20.895-31.794-24.54c-16.813-4.583-29.603-0.512-43.977,7.711c-1.813-2.017-4.238-5.386-5.902-7.575
		C35.591,4.852,44.586,1.959,56.164,0.38L56.164,0.38z"/>
	<path fill="#4E6478" d="M42.15,37.391c5.063-0.677,10.355,1.435,14.828,3.487c-3.481,2.65-5.305,4.588-8.014,8.024
		c-10.284-2.526-18.64,1.408-19.4,13.253c-0.226,3.506,1.51,7.536,4.024,10.04c2.806,2.767,6.623,4.263,10.562,4.138
		c11.099-0.248,21.406-13.686,28.934-21.531c0.657,1.802,1.467,3.756,2.173,5.55l0.025,0.147c0.075,0.396,0.144,0.793,0.208,1.19
		c1.028,6.554-4.269,9.54-7.961,13.663c-9.592,10.712-26.794,16.322-39.354,6.432c-5.1-4.021-8.389-9.906-9.142-16.357
		C17.299,50.257,27.257,39.064,42.15,37.391L42.15,37.391z"/>
	<path fill="#9BB23B" d="M49.842,69.445c-2.328-4.458-2.888-9.084,0.093-13.503c5.076-7.305,13.667-15.378,22.574-17.451
		c15.857-3.691,28.557,3.549,32.406,19.279c-4.296-0.878-7.035-1.309-10.627,1.646c-1.425-5.971-5.203-10.324-11.557-11.265
		c-11.761-1.739-18.488,8.466-25.974,15.479c-2.101,1.967-4.151,3.799-6.506,5.519L49.842,69.445L49.842,69.445z"/>
	<path fill="#4E6478" d="M94.288,59.417c3.592-2.955,6.331-2.524,10.627-1.646c1.127,6.508-0.406,13.197-4.256,18.564
		c-7.63,10.725-22.528,13.693-33.592,6.592c3.462-2.768,5.293-4.412,8.366-7.575c8.776,2.071,16.142-0.618,18.756-10.378
		C94.658,63.222,94.425,61.233,94.288,59.417L94.288,59.417z"/>
</g>
</svg>
